<svg width="34" height="18" viewBox="0 0 34 18" fill="none" xmlns="http://www.w3.org/2000/svg">
<path d="M0.88157 13V11.758C1.21757 11.758 1.48757 11.662 1.69157 11.47C1.89557 11.278 2.06357 11.026 2.19557 10.714C2.33957 10.402 2.47757 10.066 2.60957 9.706L6.11957 0.075999H7.37957L11.2136 9.886C11.2856 10.066 11.3816 10.342 11.5016 10.714C11.6216 11.074 11.6936 11.392 11.7176 11.668C11.9216 11.644 12.1136 11.632 12.2936 11.632C12.4856 11.62 12.6416 11.614 12.7616 11.614V13H7.91957V11.812C8.25557 11.812 8.48357 11.746 8.60357 11.614C8.73557 11.47 8.79557 11.278 8.78357 11.038C8.77157 10.798 8.70557 10.528 8.58557 10.228L8.22557 9.238L4.31957 9.31L4.03157 10.156C3.97157 10.312 3.88157 10.546 3.76157 10.858C3.65357 11.158 3.55157 11.41 3.45557 11.614C3.64757 11.59 3.87557 11.578 4.13957 11.578C4.41557 11.566 4.61357 11.56 4.73357 11.56V13H0.88157ZM4.76957 7.96H7.77557L6.94757 5.71C6.79157 5.278 6.65357 4.846 6.53357 4.414C6.41357 3.97 6.32357 3.58 6.26357 3.244H6.24557C6.19757 3.448 6.12557 3.754 6.02957 4.162C5.93357 4.57 5.78357 5.056 5.57957 5.62L4.76957 7.96ZM13.1273 17.59V16.42C13.4633 16.42 13.7033 16.354 13.8473 16.222C14.0033 16.09 14.0993 15.898 14.1353 15.646C14.1833 15.406 14.2073 15.13 14.2073 14.818V7.204C14.2073 6.988 14.2133 6.748 14.2253 6.484C14.2373 6.208 14.2553 5.938 14.2793 5.674C14.0873 5.686 13.8593 5.698 13.5953 5.71C13.3313 5.71 13.1333 5.716 13.0013 5.728V4.36C13.5653 4.36 14.0333 4.33 14.4053 4.27C14.7893 4.21 15.0893 4.138 15.3053 4.054C15.5333 3.97 15.6893 3.892 15.7733 3.82H16.6553C16.6793 3.94 16.6973 4.09 16.7093 4.27C16.7213 4.438 16.7333 4.576 16.7453 4.684C17.1653 4.324 17.5793 4.072 17.9873 3.928C18.4073 3.784 18.8033 3.712 19.1753 3.712C19.8953 3.712 20.5253 3.898 21.0653 4.27C21.6173 4.642 22.0433 5.17 22.3433 5.854C22.6553 6.538 22.8113 7.342 22.8113 8.266C22.8113 9.226 22.6253 10.09 22.2533 10.858C21.8813 11.614 21.3593 12.208 20.6873 12.64C20.0273 13.072 19.2473 13.288 18.3473 13.288C18.0233 13.288 17.7293 13.252 17.4653 13.18C17.2133 13.12 16.9733 13.048 16.7453 12.964V14.692C16.7453 14.86 16.7393 15.094 16.7273 15.394C16.7273 15.706 16.7153 16 16.6913 16.276C16.8833 16.252 17.0933 16.234 17.3213 16.222C17.5493 16.222 17.7233 16.222 17.8433 16.222V17.59H13.1273ZM18.0593 11.938C18.6113 11.926 19.0373 11.764 19.3373 11.452C19.6493 11.128 19.8653 10.708 19.9853 10.192C20.1053 9.676 20.1653 9.124 20.1653 8.536C20.1653 7.984 20.0993 7.462 19.9673 6.97C19.8353 6.478 19.6253 6.082 19.3373 5.782C19.0493 5.47 18.6713 5.32 18.2033 5.332C17.9033 5.344 17.6273 5.422 17.3753 5.566C17.1233 5.698 16.9133 5.884 16.7453 6.124C16.7453 6.496 16.7453 6.868 16.7453 7.24C16.7453 7.6 16.7453 7.96 16.7453 8.32C16.7453 8.68 16.7453 9.046 16.7453 9.418C16.7453 9.778 16.7453 10.144 16.7453 10.516C16.7453 10.876 16.7453 11.242 16.7453 11.614C16.8773 11.698 17.0633 11.776 17.3033 11.848C17.5433 11.92 17.7953 11.95 18.0593 11.938ZM23.9379 17.59V16.42C24.2739 16.42 24.5139 16.354 24.6579 16.222C24.8139 16.09 24.9099 15.898 24.9459 15.646C24.9939 15.406 25.0179 15.13 25.0179 14.818V7.204C25.0179 6.988 25.0239 6.748 25.0359 6.484C25.0479 6.208 25.0659 5.938 25.0899 5.674C24.8979 5.686 24.6699 5.698 24.4059 5.71C24.1419 5.71 23.9439 5.716 23.8119 5.728V4.36C24.3759 4.36 24.8439 4.33 25.2159 4.27C25.5999 4.21 25.8999 4.138 26.1159 4.054C26.3439 3.97 26.4999 3.892 26.5839 3.82H27.4659C27.4899 3.94 27.5079 4.09 27.5199 4.27C27.5319 4.438 27.5439 4.576 27.5559 4.684C27.9759 4.324 28.3899 4.072 28.7979 3.928C29.2179 3.784 29.6139 3.712 29.9859 3.712C30.7059 3.712 31.3359 3.898 31.8759 4.27C32.4279 4.642 32.8539 5.17 33.1539 5.854C33.4659 6.538 33.6219 7.342 33.6219 8.266C33.6219 9.226 33.4359 10.09 33.0639 10.858C32.6919 11.614 32.1699 12.208 31.4979 12.64C30.8379 13.072 30.0579 13.288 29.1579 13.288C28.8339 13.288 28.5399 13.252 28.2759 13.18C28.0239 13.12 27.7839 13.048 27.5559 12.964V14.692C27.5559 14.86 27.5499 15.094 27.5379 15.394C27.5379 15.706 27.5259 16 27.5019 16.276C27.6939 16.252 27.9039 16.234 28.1319 16.222C28.3599 16.222 28.5339 16.222 28.6539 16.222V17.59H23.9379ZM28.8699 11.938C29.4219 11.926 29.8479 11.764 30.1479 11.452C30.4599 11.128 30.6759 10.708 30.7959 10.192C30.9159 9.676 30.9759 9.124 30.9759 8.536C30.9759 7.984 30.9099 7.462 30.7779 6.97C30.6459 6.478 30.4359 6.082 30.1479 5.782C29.8599 5.47 29.4819 5.32 29.0139 5.332C28.7139 5.344 28.4379 5.422 28.1859 5.566C27.9339 5.698 27.7239 5.884 27.5559 6.124C27.5559 6.496 27.5559 6.868 27.5559 7.24C27.5559 7.6 27.5559 7.96 27.5559 8.32C27.5559 8.68 27.5559 9.046 27.5559 9.418C27.5559 9.778 27.5559 10.144 27.5559 10.516C27.5559 10.876 27.5559 11.242 27.5559 11.614C27.6879 11.698 27.8739 11.776 28.1139 11.848C28.3539 11.92 28.6059 11.95 28.8699 11.938Z" fill="#222B38"/>
</svg>
